<svg width="800" height="500" viewBox="0 0 800 500" xmlns="http://www.w3.org/2000/svg">
  <rect width="800" height="500" rx="12" fill="#f8f7fc"/>
  <rect x="0" y="0" width="200" height="500" rx="0" fill="#fff" stroke="#e8e5f0" stroke-width="1"/>
  <rect x="20" y="20" width="160" height="32" rx="6" fill="#7150d0"/>
  <text x="100" y="42" text-anchor="middle" font-family="sans-serif" font-size="16" font-weight="700" fill="#fff">mozhno</text>
  <rect x="220" y="20" width="560" height="60" rx="10" fill="#fff" stroke="#e8e5f0"/>
  <text x="240" y="56" font-family="sans-serif" font-size="18" font-weight="700" fill="#7150d0">Settings</text>
  <rect x="220" y="96" width="560" height="100" rx="10" fill="#fff" stroke="#e8e5f0"/>
  <text x="240" y="120" font-family="sans-serif" font-size="14" font-weight="600" fill="#2d2a3d">Project</text>
  <rect x="240" y="132" width="240" height="36" rx="8" fill="#f0edf7"/>
  <text x="256" y="154" font-family="sans-serif" font-size="12" fill="#8b80a8">My Project</text>
  <circle cx="498" cy="150" r="16" fill="#7150d0" opacity="0.15"/>
  <text x="498" y="155" font-family="sans-serif" font-size="10" fill="#7150d0" font-weight="700" text-anchor="middle">M</text>
  <rect x="220" y="212" width="560" height="180" rx="10" fill="#fff" stroke="#e8e5f0"/>
  <text x="240" y="236" font-family="sans-serif" font-size="14" font-weight="600" fill="#2d2a3d">Environments</text>
  <rect x="240" y="254" width="520" height="48" rx="8" fill="#f0edf7"/>
  <circle cx="260" cy="278" r="4" fill="#10b981"/>
  <text x="272" y="282" font-family="sans-serif" font-size="12" fill="#2d2a3d" font-weight="500">Production</text>
  <rect x="680" y="264" width="80" height="28" rx="6" fill="#fff" stroke="#e8e5f0"/>
  <text x="720" y="282" font-family="sans-serif" font-size="10" fill="#8b80a8" text-anchor="middle">Edit</text>
  <rect x="240" y="312" width="520" height="48" rx="8" fill="#fff" stroke="#e8e5f0"/>
  <circle cx="260" cy="336" r="4" fill="#eab308"/>
  <text x="272" y="340" font-family="sans-serif" font-size="12" fill="#2d2a3d" font-weight="500">Development</text>
  <rect x="680" y="322" width="80" height="28" rx="6" fill="#fff" stroke="#e8e5f0"/>
  <text x="720" y="340" font-family="sans-serif" font-size="10" fill="#8b80a8" text-anchor="middle">Edit</text>
  <rect x="220" y="440" width="560" height="40" rx="10" fill="#7150d0"/>
  <text x="500" y="466" text-anchor="middle" font-family="sans-serif" font-size="14" font-weight="600" fill="#fff">Save Changes</text>
</svg>
