<svg width="800" height="500" viewBox="0 0 800 500" xmlns="http://www.w3.org/2000/svg">
  <rect width="800" height="500" rx="12" fill="#f8f7fc"/>
  <rect x="0" y="0" width="200" height="500" rx="0" fill="#fff" stroke="#e8e5f0" stroke-width="1"/>
  <rect x="20" y="20" width="160" height="32" rx="6" fill="#7150d0"/>
  <text x="100" y="42" text-anchor="middle" font-family="sans-serif" font-size="16" font-weight="700" fill="#fff">mozhno</text>
  <rect x="16" y="70" width="168" height="36" rx="8" fill="#f0edf7"/>
  <rect x="16" y="114" width="168" height="36" rx="8" fill="#fff"/>
  <rect x="16" y="158" width="168" height="36" rx="8" fill="#fff"/>
  <rect x="16" y="202" width="168" height="36" rx="8" fill="#fff"/>
  <line x1="16" y1="256" x2="184" y2="256" stroke="#e8e5f0" stroke-width="1"/>
  <text x="32" y="280" font-family="sans-serif" font-size="11" fill="#8b80a8" font-weight="600">ADMIN</text>
  <rect x="16" y="292" width="168" height="36" rx="8" fill="#fff"/>
  <rect x="16" y="336" width="168" height="36" rx="8" fill="#fff"/>
  <rect x="220" y="20" width="560" height="60" rx="10" fill="#fff" stroke="#e8e5f0" stroke-width="1"/>
  <text x="240" y="56" font-family="sans-serif" font-size="18" font-weight="700" fill="#7150d0">Feature Flags</text>
  <rect x="220" y="96" width="560" height="56" rx="10" fill="#fff" stroke="#e8e5f0"/>
  <rect x="240" y="110" width="520" height="28" rx="6" fill="#f0edf7"/>
  <text x="256" y="130" font-family="monospace" font-size="12" fill="#8b80a8">Search flags...</text>
  <rect x="220" y="164" width="560" height="68" rx="10" fill="#fff" stroke="#e8e5f0"/>
  <rect x="240" y="178" width="40" height="40" rx="8" fill="#7150d0" opacity="0.15"/>
  <rect x="290" y="180" width="120" height="16" rx="4" fill="#2d2a3d"/>
  <rect x="290" y="202" width="80" height="12" rx="3" fill="#8b80a8"/>
  <rect x="730" y="182" width="34" height="34" rx="17" fill="#10b981" opacity="0.2"/>
  <rect x="220" y="244" width="560" height="68" rx="10" fill="#fff" stroke="#e8e5f0"/>
  <rect x="240" y="258" width="40" height="40" rx="8" fill="#7150d0" opacity="0.15"/>
  <rect x="290" y="260" width="120" height="16" rx="4" fill="#2d2a3d"/>
  <rect x="290" y="282" width="80" height="12" rx="3" fill="#8b80a8"/>
  <rect x="730" y="262" width="34" height="34" rx="17" fill="#10b981" opacity="0.2"/>
  <rect x="220" y="324" width="560" height="68" rx="10" fill="#fff" stroke="#e8e5f0"/>
  <rect x="240" y="338" width="40" height="40" rx="8" fill="#7150d0" opacity="0.15"/>
  <rect x="290" y="340" width="120" height="16" rx="4" fill="#2d2a3d"/>
  <rect x="290" y="362" width="80" height="12" rx="3" fill="#8b80a8"/>
  <rect x="730" y="342" width="34" height="34" rx="17" fill="#10b981" opacity="0.2"/>
  <rect x="220" y="440" width="560" height="40" rx="10" fill="#7150d0"/>
  <text x="500" y="466" text-anchor="middle" font-family="sans-serif" font-size="14" font-weight="600" fill="#fff">+ New Feature Flag</text>
</svg>
